HIERARCHY
ROOT Hips
{
  OFFSET 0 38.8504 0
  CHANNELS 6 Xposition Yposition Zposition Zrotation Xrotation Yrotation
  JOINT Chest
  {
    OFFSET -1.71542e-013 12.0712 3.57864e-020
    CHANNELS 3 Zrotation Xrotation Yrotation
    JOINT Neck
    {
      OFFSET 7.03924e-007 11.8099 3.51962e-007
      CHANNELS 3 Zrotation Xrotation Yrotation
      JOINT Head
      {
        OFFSET -6.99353e-014 3.63638 0
        CHANNELS 3 Zrotation Xrotation Yrotation
        End Site
        {
          OFFSET -6.99353e-014 9.80614 -1.31754e-006
        }
      }
    }
    JOINT LeftCollar
    {
      OFFSET 7.03924e-007 11.8099 3.51962e-007
      CHANNELS 3 Zrotation Xrotation Yrotation
      JOINT LeftUpArm
      {
        OFFSET 7.83858 0.237048 -1.77796e-006
        CHANNELS 3 Zrotation Xrotation Yrotation
        JOINT LeftLowArm
        {
          OFFSET 10.882 0.0243112 -2.26622e-006
          CHANNELS 3 Zrotation Xrotation Yrotation
          JOINT LeftHand
          {
            OFFSET 10.3581 -0.0243112 -3.09991e-006
            CHANNELS 3 Zrotation Xrotation Yrotation
            End Site
            {
              OFFSET 5.85126 0 1.10706e-005
            }
          }
        }
      }
    }
    JOINT RightCollar
    {
      OFFSET 7.03924e-007 11.8099 3.51962e-007
      CHANNELS 3 Zrotation Xrotation Yrotation
      JOINT RightUpArm
      {
        OFFSET -7.83858 0.237048 -7.98517e-008
        CHANNELS 3 Zrotation Xrotation Yrotation
        JOINT RightLowArm
        {
          OFFSET -10.882 0.0243112 6.35596e-008
          CHANNELS 3 Zrotation Xrotation Yrotation
          JOINT RightHand
          {
            OFFSET -10.3581 -0.0243112 7.33298e-007
            CHANNELS 3 Zrotation Xrotation Yrotation
            End Site
            {
              OFFSET -5.85126 0 9.09199e-007
            }
          }
        }
      }
    }
  }
  JOINT LeftUpLeg
  {
    OFFSET 3.90551 0 1.16393e-007
    CHANNELS 3 Zrotation Xrotation Yrotation
    JOINT LeftLowLeg
    {
      OFFSET 0.0053738 -17.2795 -1.73606e-007
      CHANNELS 3 Zrotation Xrotation Yrotation
      JOINT LeftFoot
      {
        OFFSET -0.0053738 -16.1654 -1.06366e-007
        CHANNELS 3 Zrotation Xrotation Yrotation
        End Site
        {
          OFFSET 2.9333e-007 -4.17131 6.53195
        }
      }
    }
  }
  JOINT RightUpLeg
  {
    OFFSET -3.90551 0 -1.16393e-007
    CHANNELS 3 Zrotation Xrotation Yrotation
    JOINT RightLowLeg
    {
      OFFSET -0.0053738 -17.2795 -1.73692e-007
      CHANNELS 3 Zrotation Xrotation Yrotation
      JOINT RightFoot
      {
        OFFSET 0.0053738 -16.1654 -1.0707e-007
        CHANNELS 3 Zrotation Xrotation Yrotation
        End Site
        {
          OFFSET 2.9333e-007 -4.17131 6.53195
        }
      }
    }
  }
}
MOTION
Frames:	12
Frame Time:	0.0166667
0 0 0 0 0 0 0 0 0 0 0 0 0 0 0 0 0 0 0 0 0 0 0 0 0 0 0 0 0 0 0 0 0 0 0 0 0 0 0 0 0 0 0 0 0 0 0 0 0 0 0 0 0 0 0 0 0 
4.72298 -3.39085 10.7502 0.112617 -0.14726 -7.65764 -0.234785 1.68016 -10.1219 0 0 0 2.70582 -1.70012 -4.60241 -2.92965 0 0 -89.5385 3.681 -1.62358 0.261458 -0.0164475 -7.02563 5.08847 27.1822 -3.50756 2.47198 0 0 84.0609 2.479 -10.3211 -0.250236 -0.0561944 24.6954 -0.556237 1.67809 1.48553 -0.897837 2.99299 0.0262458 0.0368652 0 0 1.21861 -6.3944 7.18747 2.3392 4.53571 -0.0930898 -0.0368653 0 0 -2.7675 -5.64329 -15.1485 
4.72298 -3.39085 10.7502 0.112617 -0.14726 -7.65764 -0.234785 1.68016 -10.1219 0 0 0 2.6937 -1.69329 -4.57684 -2.92965 0 0 -89.5118 3.68707 -1.54492 0.261398 -0.0169555 -7.24426 5.08846 27.1822 -3.50756 2.47198 0 0 83.9574 2.54309 -9.96148 -0.250336 -0.055985 24.5967 -0.556237 1.67809 1.48553 -0.897836 2.99298 0.027188 0.0368652 0 0 1.21861 -6.3944 7.18747 2.3392 4.53571 -0.0930898 -0.0368653 0 0 -2.7675 -5.64329 -15.1485 
4.72298 -3.39085 10.7502 0.112617 -0.14726 -7.65764 -0.234785 1.68016 -10.1219 0 0 0 2.67534 -1.68293 -4.53809 -2.92965 0 0 -89.4974 3.70398 -1.4449 0.261329 -0.0175005 -7.47792 5.08846 27.1822 -3.50756 2.47198 0 0 83.8532 2.60914 -9.58165 -0.25047 -0.0556892 24.4591 -0.556234 1.67809 1.48553 -0.897837 2.99299 0.0283188 0.0368652 0 0 1.21861 -6.3944 7.18747 2.3392 4.53571 -0.0930898 -0.0368653 0 0 -2.7675 -5.64329 -15.1485 
4.72298 -3.39085 10.7502 0.112617 -0.14726 -7.65764 -0.234785 1.68016 -10.1219 0 0 0 2.65341 -1.67055 -4.49183 -2.92965 0 0 -89.49 3.72669 -1.33444 0.261253 -0.0180541 -7.71653 5.08847 27.1822 -3.50755 2.47198 0 0 83.7483 2.67561 -9.18642 -0.250632 -0.0553297 24.291 -0.556237 1.67809 1.48553 -0.897836 2.99298 0.0295509 0.0368652 0 0 1.21861 -6.3944 7.18747 2.3392 4.53571 -0.0930898 -0.0368653 0 0 -2.7675 -5.64329 -15.1485 
4.72298 -3.39085 10.7502 0.112617 -0.14726 -7.65764 -0.234785 1.68016 -10.1219 0 0 0 2.63059 -1.6577 -4.44365 -2.92965 0 0 -89.4843 3.75052 -1.22386 0.261177 -0.0186002 -7.95133 5.08847 27.1822 -3.50756 2.47198 0 0 83.6428 2.74102 -8.78098 -0.250813 -0.0549257 24.1017 -0.556232 1.67809 1.48553 -0.897837 2.99298 0.0308159 0.0368652 0 0 1.21861 -6.3944 7.18747 2.3392 4.53571 -0.0930898 -0.0368653 0 0 -2.7675 -5.64329 -15.1485 
4.72298 -3.39085 10.7502 0.112617 -0.14726 -7.65764 -0.234785 1.68016 -10.1219 0 0 0 2.60955 -1.64582 -4.39923 -2.92965 0 0 -89.4752 3.77076 -1.12352 0.261108 -0.0191181 -8.17333 5.08846 27.1822 -3.50756 2.47198 0 0 83.5369 2.80399 -8.37035 -0.251009 -0.0544936 23.9001 -0.55623 1.67809 1.48553 -0.897836 2.99298 0.0321158 0.0368653 0 0 1.21861 -6.3944 7.18747 2.3392 4.53571 -0.0930898 -0.0368653 0 0 -2.7675 -5.64329 -15.1485 
4.72298 -3.39085 10.7502 0.112617 -0.14726 -7.65764 -0.234785 1.68016 -10.1219 0 0 0 2.59297 -1.63646 -4.3642 -2.92965 0 0 -89.4574 3.78314 -1.04308 0.261039 -0.0195854 -8.37509 5.08846 27.1822 -3.50756 2.47198 0 0 83.4307 2.86325 -7.95998 -0.251203 -0.0540555 23.6958 -0.556237 1.67809 1.48553 -0.897837 2.99298 0.033411 0.0368652 0 0 1.21861 -6.3944 7.18747 2.3392 4.53571 -0.0930898 -0.0368653 0 0 -2.7675 -5.64329 -15.1485 
4.72298 -3.39085 10.7502 0.112617 -0.14726 -7.65764 -0.234785 1.68016 -10.1219 0 0 0 2.58353 -1.63113 -4.34425 -2.92965 0 0 -89.4255 3.78313 -0.992257 0.260975 -0.0199895 -8.54902 5.08847 27.1822 -3.50755 2.47198 0 0 83.3242 2.91771 -7.55542 -0.25138 -0.0536307 23.4991 -0.556238 1.67809 1.48553 -0.897836 2.99298 0.0346917 0.0368652 0 0 1.21861 -6.3944 7.18747 2.3392 4.53571 -0.0930898 -0.0368653 0 0 -2.7675 -5.64329 -15.1485 
4.72298 -3.39085 10.7502 0.112617 -0.14726 -7.65764 -0.234785 1.68016 -10.1219 0 0 0 2.5839 -1.63133 -4.34505 -2.92965 0 0 -89.3744 3.76638 -0.981241 0.26093 -0.0203083 -8.6866 5.08847 27.1822 -3.50756 2.47198 0 0 83.2178 2.96637 -7.1623 -0.251548 -0.0532472 23.3202 -0.556231 1.67809 1.48553 -0.897836 2.99298 0.0359567 0.0368652 0 0 1.21861 -6.3944 7.18747 2.3392 4.53571 -0.0930898 -0.0368653 0 0 -2.7675 -5.64329 -15.1485 
4.72298 -3.39085 10.7502 0.112617 -0.14726 -7.65764 -0.234785 1.68016 -10.1219 0 0 0 2.59675 -1.63858 -4.3722 -2.92965 0 0 -89.2988 3.72848 -1.02103 0.260895 -0.0205186 -8.77746 5.08847 27.1822 -3.50756 2.47198 0 0 83.1115 3.00848 -6.78656 -0.251697 -0.0529245 23.1701 -0.556231 1.67809 1.48553 -0.897836 2.99298 0.0372029 0.0368652 0 0 1.21861 -6.3944 7.18747 2.3392 4.53571 -0.0930898 -0.0368653 0 0 -2.7675 -5.64329 -15.1485 
4.72298 -3.39085 10.7502 0.112617 -0.14726 -7.65764 -0.234785 1.68016 -10.1219 0 0 0 2.62477 -1.65437 -4.43135 -2.92965 0 0 -89.1937 3.66511 -1.12419 0.260888 -0.0205902 -8.80818 5.08847 27.1822 -3.50755 2.47198 0 0 83.0054 3.04341 -6.43434 -0.251797 -0.0526869 23.0601 -0.556232 1.67809 1.48553 -0.897837 2.99298 0.0384117 0.0368652 0 0 1.21861 -6.3944 7.18747 2.3392 4.53571 -0.0930898 -0.0368653 0 0 -2.7675 -5.64329 -15.1485 
